<?xml version="1.0" standalone="no"?>
<!DOCTYPE svg PUBLIC "-//W3C//DTD SVG 20010904//EN"
 "http://www.w3.org/TR/2001/REC-SVG-20010904/DTD/svg10.dtd">
<svg version="1.0" xmlns="http://www.w3.org/2000/svg"
 width="218.000000pt" height="218.000000pt" viewBox="0 0 218.000000 218.000000"
 preserveAspectRatio="xMidYMid meet">
<metadata>
Created by potrace 1.14, written by Peter Selinger 2001-2017
</metadata>
<g transform="translate(0.000000,218.000000) scale(0.100000,-0.100000)"
fill="#000000" stroke="none">
<path d="M1019 2036 c-2 -2 -25 -6 -50 -9 -167 -20 -385 -131 -514 -262 -215
-219 -311 -521 -259 -820 33 -192 130 -375 271 -512 127 -123 325 -224 491
-250 61 -10 253 -9 317 1 125 20 313 103 413 183 162 128 281 312 334 514 32
121 31 329 -1 449 -81 304 -289 538 -581 651 -30 11 -66 23 -80 25 -14 3 -34
8 -45 11 -43 13 -285 29 -296 19z"/>
</g>
</svg>
